<?xml version="1.0" encoding="iso-8859-1"?>
<!-- Uploaded to: SVG Repo, www.svgrepo.com, Generator: SVG Repo Mixer Tools -->
<svg fill="#000000" height="800px" width="800px" version="1.1" id="Layer_1" xmlns="http://www.w3.org/2000/svg" xmlns:xlink="http://www.w3.org/1999/xlink" 
	 viewBox="0 0 512 512" xml:space="preserve">
<g>
	<g>
		<g>
			<path d="M76.302,208.445H255.89c4.385,0,7.939-3.554,7.939-7.939v-48.69c0-4.384-3.553-7.939-7.939-7.939H76.302
				c-4.384,0-7.939,3.554-7.939,7.939v48.69C68.364,204.891,71.918,208.445,76.302,208.445z M174.034,159.755h73.916v32.813h-73.916
				V159.755z M84.241,159.755h73.918v32.813H84.241V159.755z"/>
			<path d="M499.786,460.811h-26.278V307.189h1.735c10.213,0,18.523-8.31,18.523-18.523v-20.288c0-10.213-8.31-18.523-18.523-18.523
				H293.781V124.78c9.998-0.249,18.061-8.442,18.061-18.5V64.999c0-10.213-8.31-18.523-18.523-18.523h-66.721V29.981
				c0-10.213-8.31-18.523-18.523-18.523h-83.953c-10.213,0-18.523,8.31-18.523,18.523v16.496H38.874
				C28.66,46.477,20.35,54.787,20.35,65v41.281c0,10.058,8.062,18.251,18.062,18.5v336.03H12.215C5.48,460.811,0,466.29,0,473.025
				v15.302c0,6.735,5.48,12.215,12.215,12.215h487.571c6.734,0,12.214-5.48,12.214-12.215v-15.302
				C512,466.289,506.52,460.811,499.786,460.811z M475.242,265.732c1.434,0,2.646,1.212,2.646,2.646v20.288
				c0,1.434-1.212,2.646-2.646,2.646H293.781v-25.58H475.242z M392.681,426.916c-20.352,0-37.346,14.612-41.068,33.893H293.78
				V307.189h163.852v153.622h-23.882C430.029,441.528,413.034,426.916,392.681,426.916z M417.39,460.811h-49.418
				c3.362-10.44,13.165-18.016,24.709-18.016C404.226,442.793,414.029,450.37,417.39,460.811z M36.227,106.28V64.999
				c0-1.434,1.212-2.646,2.646-2.646h74.661c4.384,0,7.939-3.554,7.939-7.939V29.981c0-1.434,1.212-2.646,2.646-2.646h83.953
				c1.434,0,2.646,1.212,2.646,2.646v24.435c0,4.384,3.554,7.939,7.939,7.939h74.659c1.434,0,2.646,1.212,2.646,2.646v41.281
				c0,1.434-1.212,2.646-2.646,2.646H38.874C37.44,108.926,36.227,107.714,36.227,106.28z M263.938,484.664H15.877v-7.978h248.061
				V484.664z M127.741,460.81v-52.408h30.415v52.408H127.741z M174.034,460.81v-52.408h30.415v52.408H174.034z M277.904,460.811
				h-57.577v-60.348c0-4.384-3.554-7.939-7.939-7.939h-92.585c-4.384,0-7.939,3.554-7.939,7.939v60.347H54.289V124.803h223.614
				V460.811z M279.815,484.664v-7.978h216.307v7.978H279.815z"/>
			<path d="M76.302,288.702H255.89c4.385,0,7.939-3.554,7.939-7.939v-48.69c0-4.384-3.553-7.939-7.939-7.939H76.302
				c-4.384,0-7.939,3.554-7.939,7.939v48.69C68.364,285.147,71.918,288.702,76.302,288.702z M174.034,240.012h73.916v32.813h-73.916
				V240.012z M84.241,240.012h73.918v32.813H84.241V240.012z"/>
			<path d="M140.468,88.36h5.445v5.444c0,7.296,5.935,13.231,13.231,13.231h13.906c7.296,0,13.231-5.935,13.231-13.231V88.36h5.444
				c7.296,0,13.231-5.935,13.231-13.231V61.223c0-7.296-5.935-13.231-13.231-13.231h-5.444v-5.446
				c0-7.296-5.935-13.231-13.231-13.231h-13.906c-7.296,0-13.231,5.935-13.231,13.231v5.446h-5.445
				c-7.296,0-13.231,5.935-13.231,13.231v13.906C127.236,82.424,133.172,88.36,140.468,88.36z M143.113,63.869h10.737
				c4.384,0,7.939-3.554,7.939-7.939V45.192h8.614V55.93c0,4.384,3.554,7.939,7.939,7.939h10.736v8.614h-10.736
				c-4.384,0-7.939,3.554-7.939,7.939v10.736h-8.614V80.421c0-4.384-3.554-7.939-7.939-7.939h-10.737V63.869z"/>
			<path d="M76.302,368.958H255.89c4.385,0,7.939-3.554,7.939-7.939v-48.69c0-4.384-3.553-7.939-7.939-7.939H76.302
				c-4.384,0-7.939,3.554-7.939,7.939v48.69C68.364,365.404,71.918,368.958,76.302,368.958z M174.034,320.268h73.916v32.813h-73.916
				V320.268z M84.241,320.268h73.918v32.813H84.241V320.268z"/>
			<path d="M443.511,387.964v-48.69c0-4.384-3.553-7.939-7.939-7.939H315.839c-4.385,0-7.939,3.554-7.939,7.939v48.69
				c0,4.384,3.553,7.939,7.939,7.939h119.734C439.957,395.903,443.511,392.348,443.511,387.964z M367.766,380.026h-43.989v-32.813
				h43.989V380.026z M427.634,380.026h-43.99v-32.813h43.99V380.026z"/>
		</g>
	</g>
</g>
</svg>